<svg xmlns="http://www.w3.org/2000/svg" xmlns:xlink="http://www.w3.org/1999/xlink" viewBox="0 0 56.19 21.64"><defs><style>.cls-1{fill:none;}.cls-2{clip-path:url(#clip-path);}.cls-3{fill:#fff;}</style><clipPath id="clip-path" transform="translate(0 0)"><rect class="cls-1" width="56.19" height="21.64"/></clipPath></defs><title>Allegro</title><g id="Capa_2" data-name="Capa 2"><g id="Capa_1-2" data-name="Capa 1"><g class="cls-2"><path class="cls-3" d="M4.58,3.49a7.16,7.16,0,0,0-2.89.62,1,1,0,0,0-.62.94A.84.84,0,0,0,2,6a2.35,2.35,0,0,0,.83-.19A4.29,4.29,0,0,1,4.49,5.5c1,0,1.44.34,1.44,1a2.44,2.44,0,0,1,0,.39l0,.13-1.95.25C1.24,7.6,0,8.59,0,10.41s1.19,2.74,3.18,2.74a9.73,9.73,0,0,0,3-.39,1.6,1.6,0,0,0,1.08-1.23l.77-4a4.81,4.81,0,0,0,.12-1.13c0-2-1.12-2.92-3.53-2.92m.53,7.45L5,11a5.91,5.91,0,0,1-1.49.17c-1.19,0-1.44-.46-1.44-.84s.13-.9,1.27-1L5.48,9Z" transform="translate(0 0)"/><path class="cls-3" d="M12.15,0a1.24,1.24,0,0,0-1.31,1.18L8.78,11.83c0,.09,0,.26,0,.34a1,1,0,0,0,1.05,1A1.25,1.25,0,0,0,11.11,12L13.16,1.32a2.09,2.09,0,0,0,0-.34,1,1,0,0,0-1-1" transform="translate(0 0)"/><path class="cls-3" d="M16.23,0a1.26,1.26,0,0,0-1.32,1.18L12.86,11.83a2.09,2.09,0,0,0,0,.34,1,1,0,0,0,1,1A1.24,1.24,0,0,0,15.18,12L17.24,1.32c0-.09,0-.26,0-.34a1,1,0,0,0-1-1" transform="translate(0 0)"/><path class="cls-3" d="M21.72,9.3c3-.4,3.61-2,3.61-3.19,0-1.8-1.63-2.62-3.14-2.62a4.61,4.61,0,0,0-4.66,3.79L17.21,8.8A5.84,5.84,0,0,0,17.07,10c0,2,1.27,3.12,3.4,3.12a8.4,8.4,0,0,0,3.07-.62,1,1,0,0,0,.63-.94.92.92,0,0,0-1-1,2.52,2.52,0,0,0-.8.19,6,6,0,0,1-1.84.27,1.15,1.15,0,0,1-1.31-1.29V9.63Zm-2-1.87a2.3,2.3,0,0,1,2.24-2c.83,0,1.32.33,1.32.88s-.46.95-1.5,1.09l-2.12.27Z" transform="translate(0 0)"/><path class="cls-3" d="M33.76,4h0a8.31,8.31,0,0,0-3-.49A4.24,4.24,0,0,0,26.2,7.33l-.35,1.84a5.45,5.45,0,0,0-.11,1.05,2.71,2.71,0,0,0,3,2.93,4.9,4.9,0,0,0,1.71-.36l.32-.14-.12.63a2,2,0,0,1-1.94,1.87,4.45,4.45,0,0,1-2-.46,1.4,1.4,0,0,0-.51-.12,1,1,0,0,0-1,1,1,1,0,0,0,.54.9,6.36,6.36,0,0,0,3,.67,4.31,4.31,0,0,0,4.3-3.8l1.51-7.92a1.38,1.38,0,0,0,0-.36A1.13,1.13,0,0,0,33.76,4m-2.58,6.34-.06,0a3,3,0,0,1-1.68.66c-1.17,0-1.34-.73-1.34-1.16a2,2,0,0,1,0-.36V9.45l.43-2.19a1.8,1.8,0,0,1,2-1.65,8.32,8.32,0,0,1,1.36.11l.18,0Z" transform="translate(0 0)"/><path class="cls-3" d="M39.44,3.49A3.25,3.25,0,0,0,36,6.38L35,11.83a2,2,0,0,0,0,.34,1,1,0,0,0,1,1A1.26,1.26,0,0,0,37.3,12l1-5.35a1.16,1.16,0,0,1,1.2-1,3.31,3.31,0,0,1,.54.06,3.31,3.31,0,0,0,.54.06,1,1,0,0,0,1.12-1c0-.57-.27-.89-.91-1.06h0a4.5,4.5,0,0,0-1.37-.18" transform="translate(0 0)"/><path class="cls-3" d="M46.19,3.49c-2.64,0-4.24,1.35-4.75,4L41.16,9A6.32,6.32,0,0,0,41,10.09c0,2,1.28,3.06,3.59,3.06,2.64,0,4.24-1.36,4.75-4l.28-1.45a5.8,5.8,0,0,0,.11-1.11c0-2-1.27-3.07-3.57-3.07m1.17,4L47,9.23A2.13,2.13,0,0,1,44.92,11c-1.27,0-1.53-.74-1.53-1.35a2.15,2.15,0,0,1,.06-.53l.33-1.74a2,2,0,0,1,2.11-1.8c1.27,0,1.53.73,1.53,1.35a2.07,2.07,0,0,1-.06.52" transform="translate(0 0)"/><path class="cls-3" d="M38.52,17.75a.47.47,0,0,0-.44.4l-.21,1.09H36.7l.2-1a.41.41,0,0,0,0-.11.34.34,0,0,0-.36-.35.47.47,0,0,0-.44.4l-.59,3a.41.41,0,0,0,0,.11.34.34,0,0,0,.36.35.46.46,0,0,0,.44-.4L36.55,20h1.17l-.23,1.17a.41.41,0,0,0,0,.11.34.34,0,0,0,.36.35.46.46,0,0,0,.44-.4l.59-3a.41.41,0,0,0,0-.11.34.34,0,0,0-.36-.35m3,0a1.61,1.61,0,0,0-1.66,1.39l-.2,1.07a1.51,1.51,0,0,0,0,.32,1.09,1.09,0,0,0,1.24,1.11,1.61,1.61,0,0,0,1.66-1.39l.21-1.07a1.51,1.51,0,0,0,0-.32,1.1,1.1,0,0,0-1.25-1.11m0,.75c.3,0,.49.16.49.42a1.91,1.91,0,0,1,0,.2l-.22,1.12a.75.75,0,0,1-.82.65.42.42,0,0,1-.48-.42.79.79,0,0,1,0-.2l.22-1.12a.75.75,0,0,1,.81-.65m3.2.08-.51,2.6s0,.08,0,.11a.35.35,0,0,0,.36.35.47.47,0,0,0,.45-.4l.51-2.66h.73a.39.39,0,0,0,.4-.4.34.34,0,0,0-.35-.37H44.05a.39.39,0,0,0-.4.4.35.35,0,0,0,.35.37Zm3.46.66.13-.66h1.3a.39.39,0,0,0,.4-.4.34.34,0,0,0-.36-.37H48a.52.52,0,0,0-.53.42L47,21.1v.08a.39.39,0,0,0,.41.4H49a.39.39,0,0,0,.4-.4.35.35,0,0,0-.35-.37H47.81L48,20H49.2a.39.39,0,0,0,.4-.4.35.35,0,0,0-.35-.37Zm3.4-1.49a.46.46,0,0,0-.44.4l-.58,3v.07a.4.4,0,0,0,.4.41h1.27a.39.39,0,0,0,.39-.4.35.35,0,0,0-.35-.37h-.85l.51-2.6s0-.08,0-.11a.35.35,0,0,0-.36-.35m3.51,0c-1,0-1.46.61-1.46,1.21a.93.93,0,0,0,.56.86l.62.3c.24.11.32.21.32.33s-.25.44-.67.44a1.4,1.4,0,0,1-.56-.13.81.81,0,0,0-.34-.09.35.35,0,0,0-.37.38.37.37,0,0,0,.24.37,2.22,2.22,0,0,0,1,.22,1.35,1.35,0,0,0,1.52-1.29,1,1,0,0,0-.62-.88l-.59-.27c-.22-.11-.3-.21-.3-.32s.21-.38.58-.38a1.51,1.51,0,0,1,.55.12,1.09,1.09,0,0,0,.33.09.36.36,0,0,0,.36-.37A.37.37,0,0,0,56,18a1.82,1.82,0,0,0-.94-.23" transform="translate(0 0)"/></g></g></g></svg>