<svg xmlns="http://www.w3.org/2000/svg" viewBox="0 0 271.64 95.92"><defs><style>.cls-1{fill:#fff;}</style></defs><title>BHG</title><g id="Capa_2" data-name="Capa 2"><g id="Capa_1-2" data-name="Capa 1"><path class="cls-1" d="M217.21,78.22a4.61,4.61,0,0,1,2.14.45,3.88,3.88,0,0,1,1.4,1.19,4.74,4.74,0,0,1,.77,1.67,8.2,8.2,0,0,1,.23,1.92,6.45,6.45,0,0,1-.39,2.34,4.09,4.09,0,0,1-1.06,1.63,4.3,4.3,0,0,1-1.65,1,7,7,0,0,1-2.15.31h-1.79v7h-3.33V78.22Zm-1,7.89a2.14,2.14,0,0,0,1.6-.64,2.75,2.75,0,0,0,.62-2,3.18,3.18,0,0,0-.54-2,2.12,2.12,0,0,0-1.78-.68h-1.39v5.3Zm-18.76,4.27a7.6,7.6,0,0,0,.08,1.21,2.72,2.72,0,0,0,.3,1,1.58,1.58,0,0,0,.6.63,2.14,2.14,0,0,0,1.93,0,1.63,1.63,0,0,0,.59-.63,2.72,2.72,0,0,0,.3-1,7.6,7.6,0,0,0,.08-1.21V78.22h3.33V90.38a7.21,7.21,0,0,1-.44,2.74A4.32,4.32,0,0,1,203,94.85a3.94,3.94,0,0,1-1.68.85,8.56,8.56,0,0,1-2,.22,9.82,9.82,0,0,1-2-.2,3.84,3.84,0,0,1-1.68-.79,4,4,0,0,1-1.18-1.7,7.61,7.61,0,0,1-.44-2.85V78.22h3.33Zm-20.79-7.09a8.6,8.6,0,0,1,.77-2.87,4.4,4.4,0,0,1,1.7-1.87,7,7,0,0,1,6,0,4.46,4.46,0,0,1,1.7,1.87,8.6,8.6,0,0,1,.76,2.87c.11,1.11.17,2.33.17,3.65s-.06,2.55-.17,3.66a8.55,8.55,0,0,1-.76,2.85,4.27,4.27,0,0,1-1.7,1.84,7.39,7.39,0,0,1-6,0,4.21,4.21,0,0,1-1.7-1.84,8.54,8.54,0,0,1-.77-2.85c-.11-1.11-.17-2.33-.17-3.66s.06-2.54.17-3.65m3.24,6.64a9.11,9.11,0,0,0,.33,2,2.2,2.2,0,0,0,.69,1.12,2.2,2.2,0,0,0,2.38,0,2.21,2.21,0,0,0,.7-1.12,8.61,8.61,0,0,0,.32-2c.05-.83.08-1.82.08-3s0-2.17-.08-3a8.7,8.7,0,0,0-.32-2,2.28,2.28,0,0,0-.7-1.14,2.2,2.2,0,0,0-2.38,0,2.27,2.27,0,0,0-.69,1.14,9.21,9.21,0,0,0-.33,2c0,.81-.08,1.8-.08,3s0,2.16.08,3m-15.83-4.09a2.62,2.62,0,0,0,1.85-.6,2.65,2.65,0,0,0,.65-2c0-1.62-.77-2.42-2.31-2.42h-1.58v5Zm1.43-7.62a4,4,0,0,1,4.4,4.49,5.47,5.47,0,0,1-.67,2.87A3.1,3.1,0,0,1,167.14,87v0a2.91,2.91,0,0,1,1.82.85,3.7,3.7,0,0,1,.72,2.13c0,.32.06.68.07,1.06s0,.81.05,1.28a21.11,21.11,0,0,0,.14,2.12,1.38,1.38,0,0,0,.6,1v.14h-3.61a2,2,0,0,1-.33-.84q-.06-.48-.09-1l-.09-3.34a2.83,2.83,0,0,0-.49-1.62,1.72,1.72,0,0,0-1.48-.58h-1.78v7.37h-3.33V78.22ZM149.08,82.4a3.37,3.37,0,0,0-.33-.94,2.29,2.29,0,0,0-.59-.71,1.35,1.35,0,0,0-.87-.28,1.82,1.82,0,0,0-1.73,1.41,14.48,14.48,0,0,0-.54,4.69c0,1,0,2,.1,2.83a11.47,11.47,0,0,0,.33,2.16,3.15,3.15,0,0,0,.7,1.37,1.52,1.52,0,0,0,1.16.47,1.47,1.47,0,0,0,.66-.17,2,2,0,0,0,.67-.51,2.6,2.6,0,0,0,.52-.86,3.35,3.35,0,0,0,.21-1.24V88.84h-2.19V86.25h5.38v9.4h-2.45V94h0a3.6,3.6,0,0,1-1.45,1.45,4.36,4.36,0,0,1-2,.43,4.94,4.94,0,0,1-2.49-.56,3.75,3.75,0,0,1-1.5-1.74,9.17,9.17,0,0,1-.73-2.89,38.68,38.68,0,0,1-.19-4,24.4,24.4,0,0,1,.27-3.86,8.13,8.13,0,0,1,.91-2.77,4.42,4.42,0,0,1,1.71-1.67,5.72,5.72,0,0,1,2.66-.56,4.9,4.9,0,0,1,3.94,1.43,6.18,6.18,0,0,1,1.2,4.09h-3.19a4.94,4.94,0,0,0-.11-1m-32.74-4.18h3.33V92.77h5.9v2.88h-9.23Zm-6.52,2.88h-5.9v4.1h5.55v2.88h-5.55v4.69h6.13v2.88h-9.46V78.22h9.23Zm-15.29,0H90.92V95.65H87.59V81.1H84V78.22H94.53ZM67.2,83.29A8.37,8.37,0,0,1,68,80.42a4.4,4.4,0,0,1,1.7-1.87,7,7,0,0,1,6,0,4.49,4.49,0,0,1,1.71,1.87,8.6,8.6,0,0,1,.76,2.87c.11,1.11.17,2.33.17,3.65s-.06,2.55-.17,3.66a8.55,8.55,0,0,1-.76,2.85,4.29,4.29,0,0,1-1.71,1.84,7.36,7.36,0,0,1-6,0A4.21,4.21,0,0,1,68,93.45a8.31,8.31,0,0,1-.77-2.85c-.11-1.11-.17-2.33-.17-3.66s.06-2.54.17-3.65m3.24,6.64a8.55,8.55,0,0,0,.33,2,2.2,2.2,0,0,0,.69,1.12,2.2,2.2,0,0,0,2.38,0,2.21,2.21,0,0,0,.7-1.12,8.61,8.61,0,0,0,.32-2c0-.83.08-1.82.08-3s0-2.17-.08-3a8.7,8.7,0,0,0-.32-2,2.28,2.28,0,0,0-.7-1.14,2.2,2.2,0,0,0-2.38,0A2.27,2.27,0,0,0,70.77,82a8.64,8.64,0,0,0-.33,2c0,.81-.08,1.8-.08,3s0,2.16.08,3M53.22,78.22v6.67h3.89V78.22h3.33V95.65H57.11V87.91H53.22v7.74H49.89V78.22Z"/><path class="cls-1" d="M33.7,39.77c0,4.52-2.69,6.72-8.22,6.72H13.28V32.42H25.71c5.38,0,8,2.4,8,7.35M31.49,16.68c0,5-3.64,6-6.7,6H13.28V10.9H23.87c5.2,0,7.62,1.83,7.62,5.78m6.45,9.43a12.59,12.59,0,0,0,6.45-11.55C44.39,4.76,38.48,0,26.32,0H.64A.65.65,0,0,0,0,.66V56.73a.66.66,0,0,0,.64.66H27.08C36.26,57.39,47,53,47,40.47c0-7-3.19-12.09-9-14.36M77.08,41c0,5.85-2.67,8.69-8.15,8.69-4,0-6-1.48-6-4.53s1.71-4.53,5.9-5.32c.82-.15,1.69-.27,2.53-.39a18.59,18.59,0,0,0,5.73-1.39ZM89.22,56.73V26.57c0-8.09-6-12.2-18-12.2-10.71,0-17.63,4.46-19,12.23a.67.67,0,0,0,.11.5.62.62,0,0,0,.42.27l10.64,1.81a.64.64,0,0,0,.74-.59c.36-3.71,2.43-5.44,6.54-5.44,3.94,0,6.39.81,6.39,4.87.15,3-3.31,3.55-9,4.21-7.68.9-17.24,2-17.33,13.43,0,7.91,5.4,12.83,14.09,12.83,5.07,0,9.08-1.37,12.21-4.18v.35c0,.47,0,1.09,0,2.07a.66.66,0,0,0,.65.66H88.58a.66.66,0,0,0,.64-.66m29.1-31.08,3.74-10.14a.72.72,0,0,0,0-.54.66.66,0,0,0-.42-.33,8,8,0,0,0-2-.27c-5.59,0-9.9,2.46-12.13,6.44V16.13a.64.64,0,0,0-.64-.66H96.53a.65.65,0,0,0-.65.66v40.6a.66.66,0,0,0,.65.66h10.85a.66.66,0,0,0,.64-.66V38.43c0-8,3.27-12.21,9.71-12.36a.66.66,0,0,0,.59-.42m42.61,17.5a.7.7,0,0,0-.1-.51.64.64,0,0,0-.43-.28l-10.17-1.73a.68.68,0,0,0-.48.12.69.69,0,0,0-.26.44c-.49,3.46-2.28,7.58-8,7.58-6.18,0-8.38-6.28-8.38-12.15,0-2.09.42-12.53,8.61-12.53,4.32,0,6.74,2.1,7.38,6.4a.69.69,0,0,0,.26.44.63.63,0,0,0,.48.11l10.43-1.77a.65.65,0,0,0,.53-.75c-1.36-8.6-8.82-14.15-19-14.15C129.17,14.37,121,23.26,121,37c0,12.64,8.46,21.47,20.59,21.47,10.27,0,17.32-5.59,19.34-15.34m32.43-11.74H177.2c.34-2.38,1.82-7.32,8.31-7.32,4.46,0,6.77,2.13,7.85,7.32m12.35,5.87v-.13c0-6.64-2-12.69-5.8-16.83a18.47,18.47,0,0,0-14.1-6c-12.06,0-20.81,9.29-20.81,22.1,0,13.17,8.36,22,20.81,22,9,0,15.19-4.09,18.39-12.14a.64.64,0,0,0,0-.57.66.66,0,0,0-.45-.33l-9-1.52a.62.62,0,0,0-.7.4c-.85,2.18-4,4.44-7.82,4.44-5.7,0-8.58-2.86-9-9h26.09a2.48,2.48,0,0,0,2.45-2.51m18.55,19.45V.66a.65.65,0,0,0-.64-.66H212a.65.65,0,0,0-.65.66V56.73a.66.66,0,0,0,.65.66h11.6a.66.66,0,0,0,.64-.66M263.84,1A.62.62,0,0,0,264,.37a.59.59,0,0,0-.54-.37H252.72a.59.59,0,0,0-.48.26l-6.56,9.94a.59.59,0,0,0,0,.6.57.57,0,0,0,.5.31h6.77a.54.54,0,0,0,.39-.15ZM259.5,36.47c0,4.59-1.16,12.3-9,12.3s-8.92-7.71-8.92-12.3,1.16-12.38,8.92-12.38,9,7.76,9,12.38m12.14,0c0-13.43-8.29-22.1-21.12-22.1S229.47,23,229.47,36.47s8.26,22,21.05,22,21.12-8.65,21.12-22"/></g></g></svg>