<svg xmlns="http://www.w3.org/2000/svg" xmlns:xlink="http://www.w3.org/1999/xlink" viewBox="0 0 77.01 20.78"><defs><style>.cls-1{fill:none;}.cls-2{clip-path:url(#clip-path);}.cls-3{fill:#fff;}</style><clipPath id="clip-path" transform="translate(0)"><rect class="cls-1" width="77.01" height="20.78"/></clipPath></defs><title>Occidental</title><g id="Capa_2" data-name="Capa 2"><g id="Capa_1-2" data-name="Capa 1"><g class="cls-2"><path class="cls-3" d="M2.34,6.77a8.19,8.19,0,0,1,.53-3.61c.27-.37.74-.42,1.63-.42s1.31,0,1.58.42a8.16,8.16,0,0,1,.54,3.61,8.27,8.27,0,0,1-.54,3.62c-.27.36-.72.41-1.61.41s-1.33-.05-1.6-.41a8.3,8.3,0,0,1-.53-3.62M9,6.77C9,4.64,8.55,2.82,7.81,2S6.13.89,4.5.89,1.85,1.11,1.13,2,0,4.64,0,6.77s.4,4,1.13,4.82,1.69,1.06,3.32,1.06,2.66-.22,3.36-1.06S9,8.91,9,6.77m7.47,5.65c.05,0,.09-.07.07-.15l-.1-1.45c0-.08-.1-.07-.17-.05a5.4,5.4,0,0,1-1.27.15c-1.43,0-1.84-.67-1.84-2.86,0-2.35.42-3,1.82-3a6,6,0,0,1,1.31.17c.08,0,.13,0,.13-.07l.07-1.44a.11.11,0,0,0-.08-.12,6.12,6.12,0,0,0-1.83-.23c-2.78,0-3.73,1.81-3.73,4.72s1,4.6,3.74,4.6a6.85,6.85,0,0,0,1.88-.23m6.89,0c.05,0,.09-.07.07-.15l-.1-1.45c0-.08-.1-.07-.17-.05a5.4,5.4,0,0,1-1.27.15c-1.43,0-1.84-.67-1.84-2.86,0-2.35.42-3,1.82-3a6,6,0,0,1,1.31.17c.08,0,.13,0,.13-.07l.07-1.44a.11.11,0,0,0-.08-.12,6.15,6.15,0,0,0-1.84-.23c-2.77,0-3.73,1.81-3.73,4.72s1,4.6,3.75,4.6a6.85,6.85,0,0,0,1.88-.23m3.83.06a.15.15,0,0,0,.17-.16V3.66a.15.15,0,0,0-.17-.16H25.29a.16.16,0,0,0-.17.16v8.66a.16.16,0,0,0,.17.16ZM27.21,2a.16.16,0,0,0,.16-.17V.17A.16.16,0,0,0,27.21,0h-2a.16.16,0,0,0-.17.17V1.83a.16.16,0,0,0,.17.17Zm6.65,10.65A11.44,11.44,0,0,0,37,12.3c.15-.07.16-.13.16-.22V.3A.16.16,0,0,0,37,.13H35.12A.16.16,0,0,0,35,.3v3c0,.09,0,.15-.12.15s-.85-.1-1.42-.1c-2.74,0-3.89,1.52-3.89,4.59,0,3.45.84,4.72,4.34,4.72M35,10.8c0,.09,0,.14-.15.17a3.88,3.88,0,0,1-.92.09c-1.78,0-2.07-.62-2.07-3.09s.5-3,2-3a5.3,5.3,0,0,1,1,.08c.1,0,.13.14.13.22Zm6.5-3.62c0-1.32.31-2.32,1.8-2.32,1.28,0,1.6.67,1.6,1.95,0,.45-.05.48-.19.48h-3.1a.1.1,0,0,1-.11-.11m5,5a.16.16,0,0,0,.12-.16l-.12-1.31a.19.19,0,0,0-.18-.08,8.59,8.59,0,0,1-2.37.39c-1.56,0-2.42-.46-2.42-2.26,0-.06,0-.1.1-.1h4.74c.4,0,.45-.28.45-1.43,0-2.43-.8-3.89-3.49-3.89s-4,1.68-4,4.69c0,2.84,1,4.63,4.32,4.63a7.33,7.33,0,0,0,2.87-.48m9.65.31a.16.16,0,0,0,.17-.16V6.54c0-2.46-.79-3.21-3.75-3.21a24.83,24.83,0,0,0-3.48.35c-.1,0-.17.07-.17.17v8.47a.16.16,0,0,0,.17.16h1.86a.15.15,0,0,0,.17-.16v-7c0-.1.05-.13.17-.17A6.06,6.06,0,0,1,52.44,5c1.35,0,1.63.34,1.63,1.62v5.68a.16.16,0,0,0,.17.16Zm6.37,0a.24.24,0,0,0,.16-.22l0-1.12c0-.14-.08-.17-.16-.17H62c-.54,0-.73-.15-.73-.71v-5a.09.09,0,0,1,.1-.1H62.8A.16.16,0,0,0,63,5V3.66a.15.15,0,0,0-.16-.16H61.38a.1.1,0,0,1-.1-.11V1.29a.16.16,0,0,0-.17-.17H59.25a.16.16,0,0,0-.17.17v2.1c0,.07,0,.11-.1.11H57.82a.16.16,0,0,0-.17.16V5a.16.16,0,0,0,.17.17H59a.09.09,0,0,1,.1.1V10.8c0,1.23.69,1.85,2,1.85a6.24,6.24,0,0,0,1.37-.15m4.65-7.41c1.31,0,1.78.24,1.78,1.25V7c0,.06,0,.08-.1.1l-2,.25C64.36,7.66,64,8.43,64,10.15c0,1.93.91,2.5,3.93,2.5a12,12,0,0,0,2.94-.3c.19-.07.22-.15.22-.25V6c0-2-1.26-2.67-3.34-2.67a11.93,11.93,0,0,0-2.94.32c-.1,0-.12.13-.1.23l.11,1.3c0,.1.16.1.26.08a17,17,0,0,1,2.08-.17M68.91,11c0,.05,0,.08-.12.12a5.82,5.82,0,0,1-1.05.08c-1.33,0-1.63-.13-1.63-1.33s.37-1.43,1.57-1.43h1.13c.07,0,.1,0,.1.11Zm7.88,1.44a.2.2,0,0,0,.17-.2L77,11.17c0-.13-.08-.16-.17-.16h-.53c-.49,0-.71-.17-.71-.71V.32a.17.17,0,0,0-.17-.19H73.57a.17.17,0,0,0-.17.19V10.6c0,1.57.7,2.05,2.1,2.05a4.38,4.38,0,0,0,1.29-.17" transform="translate(0)"/><path class="cls-3" d="M15.19,18.55s0,0,0,0H14.05s0,0,0,0V17.16s0-.06,0-.06h-.61s0,0,0,.06v3.52a0,0,0,0,0,0,.05H14a0,0,0,0,0,0-.05v-1.5a0,0,0,0,1,0,0h1.11a0,0,0,0,1,0,0v1.5a0,0,0,0,0,.05.05h.61a0,0,0,0,0,.05-.05V17.16s0-.06-.05-.06h-.61s-.05,0-.05.06Zm2.71.37a2.57,2.57,0,0,1,.17-1.15c.09-.12.23-.13.52-.13s.41,0,.5.13a2.57,2.57,0,0,1,.17,1.15,2.54,2.54,0,0,1-.17,1.14c-.09.12-.23.14-.51.14s-.42,0-.51-.14a2.54,2.54,0,0,1-.17-1.14m2.1,0a2.58,2.58,0,0,0-.36-1.53,1.22,1.22,0,0,0-1.05-.34,1.29,1.29,0,0,0-1.08.34,2.67,2.67,0,0,0-.35,1.53,2.72,2.72,0,0,0,.35,1.53c.23.27.54.33,1.06.33s.84-.06,1.07-.33A2.63,2.63,0,0,0,20,18.92m1.58,1.76a0,0,0,0,0,.05.05h.61a0,0,0,0,0,.05-.05v-3a0,0,0,0,1,0,0H23a0,0,0,0,0,0-.05v-.48s0-.06,0-.06H20.87a.05.05,0,0,0-.06.06v.48s0,.05.06.05h.68a0,0,0,0,1,0,0Zm2.5,0s0,.05.06.05h1.93a0,0,0,0,0,.05-.05v-.49a0,0,0,0,0-.05-.05H24.83a0,0,0,0,1,0,0v-.94a0,0,0,0,1,0,0H25.9a.06.06,0,0,0,.06-.05v-.45a.06.06,0,0,0-.06-.05H24.83a0,0,0,0,1,0,0v-.84s0,0,0,0H26a.06.06,0,0,0,.06-.05v-.47A.06.06,0,0,0,26,17.1H24.14a.05.05,0,0,0-.06.06Zm3.19,0a0,0,0,0,0,.05.05H28.9a0,0,0,0,0,.05-.05v-.49a0,0,0,0,0-.05-.05H28a0,0,0,0,1,0,0V17.16a.05.05,0,0,0-.06-.06h-.6s-.05,0-.05.06Zm4.57-2.95a0,0,0,0,0,0,0l0-.47s0,0,0-.05a3.18,3.18,0,0,0-.82-.1c-.78,0-1.17.2-1.17.91a1,1,0,0,0,.55,1c.73.56.75.66.75.85s-.13.39-.45.39a4.47,4.47,0,0,1-.82-.08,0,0,0,0,0,0,0l0,.48a0,0,0,0,0,.05,0,4.7,4.7,0,0,0,1,.1c.67,0,1-.28,1-1,0-.52-.23-.75-.68-1.07s-.63-.49-.63-.7.11-.38.43-.38a3.84,3.84,0,0,1,.79.08m4.53,2.15a.21.21,0,0,1,0,.07.57.57,0,0,1-.58.32c-.33,0-.44-.16-.44-.51a.54.54,0,0,1,.32-.57h0l.05,0,.6.62a.09.09,0,0,1,0,.06m-.11-2a.68.68,0,0,1-.06.37.7.7,0,0,1-.36.25c-.05,0-.17-.11-.27-.27a.75.75,0,0,1-.06-.36c0-.3.09-.38.4-.38s.35.11.35.39m1.28,2.86a1.09,1.09,0,0,0,.32-.05s0,0,0,0v-.45a0,0,0,0,0-.06,0h-.1c-.13,0-.2-.05-.53-.42a0,0,0,0,1,0,0,.09.09,0,0,1,0-.05,11.07,11.07,0,0,0,.53-1.09s0-.07,0-.07h-.58s-.06,0-.07.06a5.11,5.11,0,0,1-.3.73s0,0,0,0l0,0-.46-.46a.05.05,0,0,1,0,0,0,0,0,0,1,0,0c.53-.3.68-.48.68-1s-.26-.8-1-.8-1,.16-1,.83a1,1,0,0,0,.41.86s0,0,0,.05,0,0,0,0a.94.94,0,0,0-.61,1c0,.75.35,1,1.08,1a1,1,0,0,0,1-.46s0,0,.07,0l.28.3a.53.53,0,0,0,.44.16m4.84-.09s0,.05.07.05h.71s0,0,0-.05l-.71-1.31a.4.4,0,0,1-.08-.21s0,0,0-.07a1,1,0,0,0,.47-1c0-.73-.41-1-1.22-1H40.61a.05.05,0,0,0-.06.06v3.52s0,.05.06.05h.6a0,0,0,0,0,0-.05V19.4a0,0,0,0,1,0,0h.38s0,0,.08.1Zm-.82-1.8H41.3s0,0,0,0V17.65s0,0,.07,0h.23c.48,0,.61.12.61.6s-.15.66-.61.66m2.68,1.8a.06.06,0,0,0,.06.05h1.93a0,0,0,0,0,.05-.05v-.49a0,0,0,0,0-.05-.05H45a0,0,0,0,1,0,0v-.94a0,0,0,0,1,0,0h1.07s.06,0,.06-.05v-.45s0-.05-.06-.05H45a0,0,0,0,1,0,0v-.84s0,0,0,0h1.15s.06,0,.06-.05v-.47a.05.05,0,0,0-.06-.06H44.3a.06.06,0,0,0-.06.06Zm5-2.95a0,0,0,0,0,0,0l0-.47a0,0,0,0,0,0-.05,3.06,3.06,0,0,0-.82-.1c-.77,0-1.17.2-1.17.91a1.06,1.06,0,0,0,.55,1c.73.56.76.66.76.85s-.14.39-.45.39a4.38,4.38,0,0,1-.82-.08,0,0,0,0,0,0,0l0,.48a0,0,0,0,0,.05,0,4.67,4.67,0,0,0,1,.1c.67,0,1-.28,1-1,0-.52-.24-.75-.69-1.07s-.63-.49-.63-.7.12-.38.44-.38a4,4,0,0,1,.79.08m1.94,1.19a2.57,2.57,0,0,1,.17-1.15c.08-.12.23-.13.52-.13s.41,0,.5.13a2.57,2.57,0,0,1,.17,1.15,2.54,2.54,0,0,1-.17,1.14c-.09.12-.23.14-.51.14s-.43,0-.51-.14a2.54,2.54,0,0,1-.17-1.14m2.1,0A2.58,2.58,0,0,0,53,17.39a1.23,1.23,0,0,0-1-.34,1.29,1.29,0,0,0-1.08.34,2.59,2.59,0,0,0-.35,1.53,2.63,2.63,0,0,0,.35,1.53c.23.27.54.33,1.06.33s.84-.06,1.07-.33a2.63,2.63,0,0,0,.36-1.53m3.08,1.76s0,.05.07.05h.71s0,0,0-.05l-.71-1.31a.51.51,0,0,1-.08-.21s0,0,0-.07a1,1,0,0,0,.47-1c0-.73-.41-1-1.22-1H54.64a.06.06,0,0,0-.06.06v3.52a.06.06,0,0,0,.06.05h.6a0,0,0,0,0,0-.05V19.4s0,0,.05,0h.37s0,0,.09.1Zm-.82-1.8h-.26s0,0,0,0V17.65s0,0,.07,0h.23c.48,0,.61.12.61.6s-.15.66-.61.66m3.06,1.8a0,0,0,0,0,.05.05h.61a0,0,0,0,0,0-.05v-3a0,0,0,0,1,0,0h.69a0,0,0,0,0,.05-.05v-.48s0-.06-.05-.06H57.93s0,0,0,.06v.48a0,0,0,0,0,0,.05h.69a0,0,0,0,1,0,0ZM63,17.73a0,0,0,0,0,0,0l0-.47s0,0,0-.05a3.21,3.21,0,0,0-.83-.1c-.77,0-1.16.2-1.16.91a1,1,0,0,0,.55,1c.73.56.75.66.75.85s-.14.39-.45.39a4.38,4.38,0,0,1-.82-.08,0,0,0,0,0,0,0l0,.48a0,0,0,0,0,.05,0,4.67,4.67,0,0,0,1,.1c.68,0,1-.28,1-1,0-.52-.24-.75-.68-1.07s-.63-.49-.63-.7.11-.38.43-.38a3.91,3.91,0,0,1,.79.08" transform="translate(0)"/></g></g></g></svg>