<svg xmlns="http://www.w3.org/2000/svg" viewBox="0 0 113.03 22.1" width="205" height="40"><defs><style>.cls-1{fill:none;}.cls-2{clip-path:url(#clip-path);}.cls-3{fill:#ffffff;}</style><clipPath id="clip-path" transform="translate(0 0)"><rect class="cls-1" width="113.03" height="22.1"/></clipPath></defs><title>Royal-Hideaaway</title><g id="Capa_2" data-name="Capa 2"><g id="Capa_1-2" data-name="Capa 1"><g class="cls-2"><path class="cls-3" d="M13.28,22h2.53l.07-1.16H15.3l0,.33c0,.17-.08.27-.33.27h-.31c-.14,0-.19-.05-.19-.17V19c0-.13,0-.17.16-.17h.21v-.52H13.28v.52h.2c.13,0,.17,0,.17.17v2.34c0,.13,0,.17-.17.17h-.2Zm4.83-3.72h-1.5v.52h.17c.13,0,.17,0,.17.17v1.7a1.24,1.24,0,0,0,1.42,1.39,1.24,1.24,0,0,0,1.4-1.39V19c0-.13,0-.17.17-.17h.17v-.52h-1.4v.52h.18c.13,0,.17,0,.17.17v1.66c0,.56-.22.82-.65.82s-.65-.26-.65-.82V19c0-.13,0-.17.17-.17h.18Zm2.88,0v.52h.14c.11,0,.15.05.22.17.21.39.48.87.68,1.16a11.92,11.92,0,0,0-.73,1.18c-.06.12-.11.17-.21.17H21V22h.83a10.52,10.52,0,0,1,.68-1.33A12.62,12.62,0,0,1,23.17,22h.89v-.52h-.14c-.1,0-.14-.05-.21-.17A13.5,13.5,0,0,0,23,20.11a12.05,12.05,0,0,0,.68-1.1c.07-.12.11-.17.22-.17H24v-.52h-.83a9.08,9.08,0,0,1-.62,1.25,9.44,9.44,0,0,1-.67-1.25Zm5.4,0h-1.5v.52h.17c.13,0,.17,0,.17.17v1.7a1.25,1.25,0,0,0,1.43,1.39,1.24,1.24,0,0,0,1.4-1.39V19c0-.13,0-.17.17-.17h.17v-.52H27v.52h.18c.13,0,.17,0,.17.17v1.66c0,.56-.23.82-.66.82s-.65-.26-.65-.82V19c0-.13,0-.17.17-.17h.18ZM29.33,22h1.49v-.52h-.17c-.13,0-.17-.06-.17-.2v-.07c0-.46.06-.5.46-.59a7.93,7.93,0,0,1,.54.9c.21.41.35.5.69.5a2.59,2.59,0,0,0,.47,0v-.56h-.11c-.15,0-.22-.05-.39-.31a4.21,4.21,0,0,0-.5-.65,1,1,0,0,0,.77-1c0-.84-.52-1.22-1.56-1.22a13.83,13.83,0,0,0-1.52.08v.52h.21c.12,0,.16.05.16.17v2.31c0,.13,0,.17-.17.17h-.2Zm1.15-3.17h.39c.54,0,.74.27.74.63s-.26.58-.64.62a1.35,1.35,0,0,0-.49.11ZM34,22h1.53v-.52h-.2c-.13,0-.18,0-.18-.2v-.05c0-.7.36-1,.87-2.26,0-.13.08-.16.2-.16h.14v-.53h-.88a8.92,8.92,0,0,1-.5,1.41c-.08.16-.15.33-.19.43,0-.1-.11-.27-.18-.43a8,8,0,0,1-.5-1.41h-1v.53h.13c.13,0,.16,0,.21.16.51,1.24.89,1.56.89,2.26v.05c0,.16-.05.2-.18.2H34ZM39,22h1.51v-.52h-.19c-.13,0-.17,0-.17-.17v-.93h1.33v.93c0,.13,0,.17-.17.17h-.19V22h1.52v-.52h-.2c-.13,0-.18,0-.18-.17V19c0-.13.05-.17.18-.17h.2v-.52H41.09v.52h.19c.13,0,.17,0,.17.17v.84H40.12V19c0-.13,0-.17.17-.17h.19v-.52H39v.52h.2c.13,0,.17,0,.17.17v2.34c0,.13,0,.17-.17.17H39Zm7.13-1.86c0,.69-.21,1.34-.86,1.34s-.85-.65-.85-1.34.21-1.34.85-1.34.86.66.86,1.34m.81,0c0-1.13-.59-1.92-1.67-1.92s-1.65.79-1.65,1.92.58,1.92,1.65,1.92,1.67-.78,1.67-1.92M48.43,22H50v-.52h-.2c-.13,0-.17,0-.17-.17V18.88h.29c.17,0,.21.05.21.22v.37h.58V18.32H47.73v1.15h.57V19.1c0-.17,0-.22.21-.22h.3v2.47c0,.13-.05.17-.17.17h-.21Zm3.16,0h2.77l.07-1h-.58l0,.26c0,.15-.11.23-.31.23h-.6c-.12,0-.16,0-.16-.17v-.92h1.19v-.55H52.75v-1h.84c.17,0,.21,0,.21.21v.26h.58v-1H51.59v.52h.2c.13,0,.17,0,.17.17v2.34c0,.13,0,.17-.17.17h-.2Zm3.84,0H58L58,20.88h-.57l0,.33c0,.17-.08.27-.33.27h-.3c-.14,0-.2-.05-.2-.17V19c0-.13,0-.17.17-.17H57v-.52H55.43v.52h.2c.12,0,.17,0,.17.17v2.34c0,.13,0,.17-.17.17h-.2ZM59,21v.87a2.73,2.73,0,0,0,1.12.25c.86,0,1.46-.35,1.46-1.12s-.36-.93-1-1.12l-.27-.09c-.34-.12-.57-.21-.57-.46a.48.48,0,0,1,.54-.48.55.55,0,0,1,.57.52h.5v-.89a2.86,2.86,0,0,0-1.06-.2c-.87,0-1.35.42-1.35,1.08a1.05,1.05,0,0,0,.84,1.06l.43.14c.33.1.53.25.53.49s-.25.5-.66.5a.58.58,0,0,1-.64-.55Zm6.37-1.82a.33.33,0,1,1,.65,0,.6.6,0,0,1-.4.49.8.8,0,0,1-.25-.49m2.51,2.29h-.12a.78.78,0,0,1-.57-.22,1.91,1.91,0,0,0,.19-.47c0-.13.08-.18.21-.18h.2v-.52h-1a1.82,1.82,0,0,1-.14.75,4.67,4.67,0,0,1-.66-.73,1,1,0,0,0,.72-.93.89.89,0,0,0-1-.89.91.91,0,0,0-1,.89,1.1,1.1,0,0,0,.35.77A1.23,1.23,0,0,0,64.21,21c0,.73.53,1.12,1.35,1.12a1.69,1.69,0,0,0,1.12-.38,1,1,0,0,0,.73.33,1.93,1.93,0,0,0,.42,0Zm-1.64-.15a.87.87,0,0,1-.6.22A.54.54,0,0,1,65,21a.65.65,0,0,1,.36-.59,6.54,6.54,0,0,0,.82.91m4.26.74H72v-.52h-.17c-.13,0-.17-.06-.17-.2v-.07c0-.46.06-.5.45-.59a6.33,6.33,0,0,1,.55.9c.21.41.35.5.69.5a2.59,2.59,0,0,0,.47,0v-.56h-.12c-.14,0-.21-.05-.38-.31a4.21,4.21,0,0,0-.5-.65,1,1,0,0,0,.77-1c0-.84-.52-1.22-1.56-1.22a14.16,14.16,0,0,0-1.53.08v.52h.22c.12,0,.16.05.16.17v2.31c0,.13,0,.17-.17.17h-.21Zm1.16-3.17H72c.53,0,.74.27.74.63s-.26.58-.64.62a1.29,1.29,0,0,0-.49.11Zm3,3.17H77.4l.07-1h-.58l0,.26c0,.15-.11.23-.31.23H76c-.13,0-.17,0-.17-.17v-.92H77v-.55H75.79v-1h.84c.17,0,.21,0,.21.21v.26h.58v-1H74.63v.52h.2c.13,0,.18,0,.18.17v2.34c0,.13-.05.17-.18.17h-.2ZM78.51,21v.87a2.68,2.68,0,0,0,1.11.25c.87,0,1.47-.35,1.47-1.12s-.36-.93-1-1.12l-.27-.09c-.35-.12-.57-.21-.57-.46a.48.48,0,0,1,.54-.48.55.55,0,0,1,.57.52h.5v-.89a2.86,2.86,0,0,0-1.06-.2c-.87,0-1.35.42-1.35,1.08a1.05,1.05,0,0,0,.84,1.06l.43.14c.33.1.52.25.52.49s-.24.5-.65.5S79.07,21.3,79,21Zm6-.8c0,.69-.21,1.34-.86,1.34s-.85-.65-.85-1.34.2-1.34.85-1.34.86.66.86,1.34m.8,0c0-1.13-.58-1.92-1.66-1.92S82,19.05,82,20.18s.59,1.92,1.66,1.92,1.66-.78,1.66-1.92m1,1.86h1.5v-.52h-.17c-.13,0-.17-.06-.17-.2v-.07c0-.46.06-.5.45-.59a6.33,6.33,0,0,1,.55.9c.21.41.35.5.69.5a2.59,2.59,0,0,0,.47,0v-.56h-.12c-.15,0-.21-.05-.38-.31a4.21,4.21,0,0,0-.5-.65,1,1,0,0,0,.77-1c0-.84-.52-1.22-1.56-1.22a14.16,14.16,0,0,0-1.53.08v.52h.22c.12,0,.16.05.16.17v2.31c0,.13,0,.17-.18.17h-.2Zm1.16-3.17h.39c.53,0,.74.27.74.63s-.26.58-.64.62a1.29,1.29,0,0,0-.49.11ZM91,22h1.52v-.52h-.2c-.13,0-.17,0-.17-.17V18.88h.29c.17,0,.21.05.21.22v.37h.58V18.32H90.29v1.15h.57V19.1c0-.17,0-.22.22-.22h.29v2.47c0,.13,0,.17-.17.17H91ZM94.2,21v.87a2.68,2.68,0,0,0,1.11.25c.86,0,1.47-.35,1.47-1.12s-.37-.93-1-1.12l-.27-.09c-.35-.12-.57-.21-.57-.46s.18-.48.54-.48a.55.55,0,0,1,.57.52h.49v-.89a2.77,2.77,0,0,0-1-.2c-.88,0-1.35.42-1.35,1.08A1.05,1.05,0,0,0,95,20.4l.43.14c.33.1.52.25.52.49s-.24.5-.65.5-.57-.23-.64-.55Z" transform="translate(0 0)"/><path class="cls-3" d="M113,1.43V.18h-2.27c-.34,1.72-1.55,5.82-2,7.15-.48-1.33-1.5-5.43-1.83-7.15h-2.46V1.43h.38c.3,0,.39.11.47.39.69,2.52,1.88,6.18,2.38,7.35a1.11,1.11,0,0,1-.52,1.4,2.24,2.24,0,0,1-1.59-.07V12a3.38,3.38,0,0,0,2,0c1.27-.37,1.88-2,2.23-2.87a74.67,74.67,0,0,0,2.39-7.35c.07-.28.16-.39.47-.39Zm-8.27,6.48c-.35,0-.45-.25-.53-.52A72,72,0,0,0,101.76.17h-2.1a72,72,0,0,0-2.47,7.22c-.08.27-.18.52-.53.52h-.27V9.16h3.25V8H99.4C99.05,8,99,8,99,7.76a4.29,4.29,0,0,1,.21-.84h2.91a3.6,3.6,0,0,1,.21.84c0,.19-.09.28-.45.28h-.24V9.16H105V7.91Zm-3-2.33H99.51c.29-1.11.78-2.73,1.09-3.6h0c.3.87.81,2.49,1.1,3.6M96.61,1.42H97V.17h-2.3a54.48,54.48,0,0,1-1.49,6.46C92.8,5.45,91.81,1.1,91.64.17H89.79c-.17.93-1.15,5.28-1.54,6.46A54.48,54.48,0,0,1,86.76.17h-2.5V1.42h.38c.29,0,.39.11.47.4a66.84,66.84,0,0,0,2.22,7.34h1.75C89.53,8,90.55,4,90.7,3.14c.15.89,1.19,4.81,1.64,6h1.59a70.15,70.15,0,0,0,2.2-7.34c.07-.29.17-.4.48-.4m-12,6.49c-.34,0-.45-.25-.52-.52A74.22,74.22,0,0,0,81.58.17h-2.1C78.91,1.44,77.75,4.86,77,7.39c-.07.27-.18.52-.53.52h-.27V9.16h3.25V8h-.23c-.36,0-.45-.09-.45-.28a3.91,3.91,0,0,1,.2-.84h2.91a3.6,3.6,0,0,1,.21.84C82.1,8,82,8,81.65,8h-.23V9.16h3.43V7.91Zm-3-2.33H79.33c.3-1.11.79-2.73,1.1-3.6h0c.31.87.81,2.49,1.11,3.6M71.4,7.44V5.23h2.88V3.88H71.4V1.47h2c.41,0,.51.1.51.51v.63h1.39V.17H68.6V1.42h.49c.31,0,.42.1.42.41V7.49c0,.31-.11.42-.42.42H68.6V9.16h6.71l.16-2.48H74.06L74,7.3c0,.38-.27.56-.75.56H71.81c-.31,0-.41-.11-.41-.42M67.52,4.69c0-3-1.4-4.64-4.44-4.64a32.32,32.32,0,0,0-3.68.2V1.52l.53,0c.28,0,.37.12.37.42V7.48c0,.3-.09.41-.37.41l-.53,0V9.13c.64.08,2.14.14,3.68.14,3,0,4.44-1.56,4.44-4.58m-2,0c0,1.89-.65,3.17-2.5,3.17-.34,0-.65,0-.88,0V1.49l.88,0c1.9,0,2.5,1.34,2.5,3.22M54.62,9.16h3.7V7.91h-.49c-.31,0-.41-.11-.41-.42V1.83c0-.31.1-.41.41-.41h.49V.17h-3.7V1.42h.49c.31,0,.41.1.41.41V7.49c0,.31-.1.42-.41.42h-.49Zm-4.75,0h3.67V7.91h-.49c-.31,0-.41-.11-.41-.42V1.83c0-.31.1-.41.41-.41h.49V.17H49.87V1.42h.46c.31,0,.42.1.42.41v2H47.51v-2c0-.31.11-.41.42-.41h.46V.17H44.72V1.42h.49c.31,0,.41.1.41.41V7.49c0,.31-.1.42-.41.42h-.49V9.16h3.67V7.91h-.46c-.31,0-.42-.11-.42-.42V5.25h3.24V7.49c0,.31-.11.42-.42.42h-.46Zm-9.1,0,.16-2.81h-1.4l-.08.81c0,.4-.19.66-.81.66h-.73c-.34,0-.48-.12-.48-.43V1.83c0-.31.1-.41.41-.41h.49V.17H34.64V1.42h.49c.31,0,.41.1.41.41V7.49c0,.31-.1.42-.41.42h-.49V9.16Zm-10.26,0h3.43V7.91h-.27c-.35,0-.45-.25-.53-.52A72,72,0,0,0,30.67.17h-2.1A74.6,74.6,0,0,0,26.1,7.39c-.08.27-.18.52-.53.52H25.3V9.16h3.25V8h-.24c-.36,0-.45-.09-.45-.28a4.29,4.29,0,0,1,.21-.84H31a4.29,4.29,0,0,1,.21.84c0,.19-.09.28-.45.28h-.23Zm.12-3.58H28.42c.29-1.11.78-2.73,1.09-3.6h0c.31.87.81,2.49,1.1,3.6m-5.1-4.15h.37V.18H23.63a73.46,73.46,0,0,1-2,7.15C21.13,6,20.11,1.9,19.78.18H17.32V1.43h.39c.29,0,.38.11.46.39.69,2.52,1.88,6.18,2.38,7.35a1.11,1.11,0,0,1-.52,1.4,2.25,2.25,0,0,1-1.59-.07V12a3.38,3.38,0,0,0,2,0c1.27-.37,1.89-2,2.24-2.87a75,75,0,0,0,2.38-7.35c.08-.28.17-.39.48-.39M16.88,4.66c0-2.74-1.42-4.66-4-4.66s-4,1.92-4,4.66,1.42,4.66,4,4.66,4-1.9,4-4.66m-2,0c0,1.66-.5,3.25-2.07,3.25s-2.06-1.59-2.06-3.25.49-3.24,2.06-3.24S14.92,3,14.92,4.66m-8,4.56A7.24,7.24,0,0,0,8,9.1V7.73H7.75c-.36,0-.51-.12-.94-.74a9.13,9.13,0,0,0-1.2-1.57A2.41,2.41,0,0,0,7.48,3c0-2-1.27-3-3.78-3A34.13,34.13,0,0,0,0,.25V1.52l.53,0c.28,0,.37.12.37.42V7.49c0,.31-.1.42-.41.42H0V9.16H3.63V7.91H3.21c-.31,0-.42-.15-.42-.48V7.25C2.79,6.13,3,6,3.9,5.82A15.53,15.53,0,0,1,5.22,8c.51,1,.85,1.21,1.67,1.21M5.54,3c0,.95-.63,1.4-1.55,1.5a3.85,3.85,0,0,0-1.2.26V1.49l1,0C5,1.47,5.54,2.11,5.54,3" transform="translate(0 0)"/></g></g></g></svg>